# xmcd CD database generated by RipIT
#
# Track frame offsets:
# 150
# 12984
# 26096
# 40186
# 52918
# 64459
# 79348
# 91890
# 104211
# 118281
# 129663
# 142009
# 153852
# 168183
# 181336
# 192395
# 206487
# 221402
# 234673
# 246821
# 258270
# 270283
# 283677
# 293768
# 305707
#
# Disc length: 4255 seconds
#
# Revision: 0
# Processed by: cddbd v1.5.2PL0 Copyright (c) Steve Scherf et al.
# Submitted via: RipIT 4.0.0-beta20140508 www.suwald.com/ripit/ripit.html on 2018-10-22 at 19:55
#
DISCID=75109d19
DTITLE=Various Artist - Backline - Volume 21 - CD 1
DYEAR=2007
DGENRE=Pop
TTITLE0=Guy Mitchell - The Roving Kind
TTITLE1=Leroy Van Dyke - The Auctioneer
TTITLE2=Lavern Baker - Tweedle Dee
TTITLE3=The Pied Pipers - My Happiness
TTITLE4=Hank Thompson - The Green Light
TTITLE5=Roy Hamilton - You'll Never Walk Alone
TTITLE6=Arthur Gunter - Baby Let's Play House
TTITLE7=Johnny Cash - I Walk The Line
TTITLE8=Betty Hutton - I Wish I Didn't Love You So
TTITLE9=Hank Ballard and Midnighters - Sexy Ways
TTITLE10=Hank Snow - Marriage Vow
TTITLE11=Elvis Presley - Money Honey
TTITLE12=Johnny Mercer - I Lost My Sugar In Salt Lake City
TTITLE13=The Cadillacs - Gloria
TTITLE14=Pat Boone - Tutti Frutti
TTITLE15=Toni Arden - I Can Dream, Cant't I
TTITLE16=Glenn Miller Orchestra - Moonlight Cocktail
TTITLE17=Chuck Willis - I Feel So Bad
TTITLE18=Margaret Whiting - A Tree In The Meadow
TTITLE19=Roy Milton - Oh Babe
TTITLE20=Red Foley - I'll Never Let You Worry My Mind
TTITLE21=The Andrews Sisters - One Meat Ball
TTITLE22=The Five Keys - Ling Ting Tong
TTITLE23=Johnnie Ray - Just Walking In The Rain
TTITLE24=Ezio Pinza - Some Enchanted Evening
EXTD=
EXTT0=
EXTT1=
EXTT2=
EXTT3=
EXTT4=
EXTT5=
EXTT6=
EXTT7=
EXTT8=
EXTT9=
EXTT10=
EXTT11=
EXTT12=
EXTT13=
EXTT14=
EXTT15=
EXTT16=
EXTT17=
EXTT18=
EXTT19=
EXTT20=
EXTT21=
EXTT22=
EXTT23=
EXTT24=
PLAYORDER=
